<svg width="548" height="184" viewBox="0 0 548 184" fill="none" xmlns="http://www.w3.org/2000/svg">
<path d="M179.475 86.5469V96.5H178.155V86.5469H179.475ZM183.645 91.0244V92.1045H179.188V91.0244H183.645ZM184.321 86.5469V87.627H179.188V86.5469H184.321ZM189.831 95.2354V91.4277C189.831 91.1361 189.772 90.8831 189.653 90.6689C189.539 90.4502 189.366 90.2816 189.134 90.1631C188.901 90.0446 188.614 89.9854 188.272 89.9854C187.953 89.9854 187.673 90.04 187.432 90.1494C187.195 90.2588 187.008 90.4023 186.871 90.5801C186.739 90.7578 186.673 90.9492 186.673 91.1543H185.408C185.408 90.89 185.477 90.6279 185.613 90.3682C185.75 90.1084 185.946 89.8737 186.201 89.6641C186.461 89.4499 186.771 89.2812 187.131 89.1582C187.495 89.0306 187.901 88.9668 188.348 88.9668C188.885 88.9668 189.359 89.0579 189.77 89.2402C190.184 89.4225 190.508 89.6982 190.74 90.0674C190.977 90.432 191.096 90.89 191.096 91.4414V94.8867C191.096 95.1328 191.116 95.3949 191.157 95.6729C191.203 95.9508 191.269 96.1901 191.355 96.3906V96.5H190.036C189.972 96.3542 189.922 96.1605 189.886 95.9189C189.849 95.6729 189.831 95.445 189.831 95.2354ZM190.05 92.0156L190.063 92.9043H188.785C188.425 92.9043 188.104 92.9339 187.821 92.9932C187.539 93.0479 187.302 93.1322 187.11 93.2461C186.919 93.36 186.773 93.5036 186.673 93.6768C186.573 93.8454 186.522 94.0436 186.522 94.2715C186.522 94.5039 186.575 94.7158 186.68 94.9072C186.785 95.0986 186.942 95.2513 187.151 95.3652C187.366 95.4746 187.628 95.5293 187.938 95.5293C188.325 95.5293 188.667 95.4473 188.963 95.2832C189.259 95.1191 189.494 94.9186 189.667 94.6816C189.845 94.4447 189.94 94.2145 189.954 93.9912L190.494 94.5996C190.462 94.791 190.376 95.0029 190.234 95.2354C190.093 95.4678 189.904 95.6911 189.667 95.9053C189.435 96.1149 189.157 96.2904 188.833 96.4316C188.514 96.5684 188.154 96.6367 187.753 96.6367C187.252 96.6367 186.812 96.5387 186.434 96.3428C186.06 96.1468 185.768 95.8848 185.559 95.5566C185.354 95.224 185.251 94.8525 185.251 94.4424C185.251 94.0459 185.328 93.6973 185.483 93.3965C185.638 93.0911 185.862 92.8382 186.153 92.6377C186.445 92.4326 186.796 92.2777 187.206 92.1729C187.616 92.068 188.074 92.0156 188.58 92.0156H190.05ZM198.595 95.4609V96.5H193.215V95.4609H198.595ZM198.396 89.999L193.502 96.5H192.729V95.5703L197.59 89.1035H198.396V89.999ZM197.836 89.1035V90.1494H192.784V89.1035H197.836ZM202.99 96.6367C202.475 96.6367 202.008 96.5501 201.589 96.377C201.174 96.1992 200.816 95.9508 200.516 95.6318C200.219 95.3128 199.992 94.9346 199.832 94.4971C199.673 94.0596 199.593 93.5811 199.593 93.0615V92.7744C199.593 92.1729 199.682 91.6374 199.859 91.168C200.037 90.694 200.279 90.293 200.584 89.9648C200.889 89.6367 201.236 89.3883 201.623 89.2197C202.01 89.0511 202.411 88.9668 202.826 88.9668C203.355 88.9668 203.811 89.0579 204.193 89.2402C204.581 89.4225 204.897 89.6777 205.144 90.0059C205.39 90.3294 205.572 90.7122 205.69 91.1543C205.809 91.5918 205.868 92.0703 205.868 92.5898V93.1572H200.345V92.125H204.604V92.0293C204.585 91.7012 204.517 91.3822 204.398 91.0723C204.285 90.7624 204.102 90.5072 203.852 90.3066C203.601 90.1061 203.259 90.0059 202.826 90.0059C202.539 90.0059 202.275 90.0674 202.033 90.1904C201.792 90.3089 201.584 90.4867 201.411 90.7236C201.238 90.9606 201.104 91.25 201.008 91.5918C200.912 91.9336 200.864 92.3278 200.864 92.7744V93.0615C200.864 93.4124 200.912 93.7428 201.008 94.0527C201.108 94.3581 201.252 94.627 201.438 94.8594C201.63 95.0918 201.86 95.2741 202.129 95.4062C202.402 95.5384 202.712 95.6045 203.059 95.6045C203.505 95.6045 203.883 95.5133 204.193 95.3311C204.503 95.1488 204.774 94.9049 205.007 94.5996L205.772 95.208C205.613 95.4495 205.41 95.6797 205.164 95.8984C204.918 96.1172 204.615 96.2949 204.255 96.4316C203.899 96.5684 203.478 96.6367 202.99 96.6367ZM208.609 90.2656V96.5H207.345V89.1035H208.575L208.609 90.2656ZM210.92 89.0625L210.913 90.2383C210.808 90.2155 210.708 90.2018 210.612 90.1973C210.521 90.1882 210.416 90.1836 210.298 90.1836C210.006 90.1836 209.749 90.2292 209.525 90.3203C209.302 90.4115 209.113 90.5391 208.958 90.7031C208.803 90.8672 208.68 91.0632 208.589 91.291C208.502 91.5143 208.445 91.7604 208.418 92.0293L208.062 92.2344C208.062 91.7878 208.106 91.3685 208.192 90.9766C208.284 90.5846 208.423 90.2383 208.609 89.9375C208.796 89.6322 209.033 89.3952 209.32 89.2266C209.612 89.0534 209.958 88.9668 210.359 88.9668C210.451 88.9668 210.555 88.9782 210.674 89.001C210.792 89.0192 210.874 89.0397 210.92 89.0625ZM220.087 94.791V89.1035H221.358V96.5H220.148L220.087 94.791ZM220.326 93.2324L220.853 93.2188C220.853 93.7109 220.8 94.1667 220.695 94.5859C220.595 95.0007 220.431 95.3607 220.203 95.666C219.975 95.9714 219.677 96.2106 219.308 96.3838C218.938 96.5524 218.49 96.6367 217.961 96.6367C217.601 96.6367 217.271 96.5843 216.97 96.4795C216.674 96.3747 216.418 96.2129 216.204 95.9941C215.99 95.7754 215.824 95.4906 215.705 95.1396C215.591 94.7887 215.534 94.3672 215.534 93.875V89.1035H216.799V93.8887C216.799 94.2214 216.835 94.4971 216.908 94.7158C216.986 94.93 217.088 95.1009 217.216 95.2285C217.348 95.3516 217.494 95.4382 217.653 95.4883C217.817 95.5384 217.986 95.5635 218.159 95.5635C218.697 95.5635 219.123 95.4609 219.438 95.2559C219.752 95.0462 219.978 94.766 220.114 94.415C220.256 94.0596 220.326 93.6654 220.326 93.2324ZM224.551 90.5254V99.3438H223.279V89.1035H224.441L224.551 90.5254ZM229.534 92.7402V92.8838C229.534 93.4215 229.47 93.9206 229.343 94.3809C229.215 94.8366 229.028 95.2331 228.782 95.5703C228.541 95.9076 228.242 96.1696 227.887 96.3564C227.531 96.5433 227.123 96.6367 226.663 96.6367C226.194 96.6367 225.779 96.5592 225.419 96.4043C225.059 96.2493 224.754 96.0238 224.503 95.7275C224.252 95.4313 224.052 95.0758 223.901 94.6611C223.756 94.2464 223.655 93.7793 223.601 93.2598V92.4941C223.655 91.9473 223.758 91.4574 223.908 91.0244C224.059 90.5915 224.257 90.2223 224.503 89.917C224.754 89.6071 225.057 89.3724 225.412 89.2129C225.768 89.0488 226.178 88.9668 226.643 88.9668C227.107 88.9668 227.52 89.0579 227.88 89.2402C228.24 89.418 228.543 89.6732 228.789 90.0059C229.035 90.3385 229.22 90.7373 229.343 91.2021C229.47 91.6624 229.534 92.1751 229.534 92.7402ZM228.263 92.8838V92.7402C228.263 92.3711 228.224 92.0247 228.146 91.7012C228.069 91.373 227.948 91.0859 227.784 90.8398C227.625 90.5892 227.42 90.3932 227.169 90.252C226.918 90.1061 226.62 90.0332 226.273 90.0332C225.954 90.0332 225.676 90.0879 225.439 90.1973C225.207 90.3066 225.009 90.4548 224.845 90.6416C224.681 90.8239 224.546 91.0335 224.441 91.2705C224.341 91.5029 224.266 91.7445 224.216 91.9951V93.7656C224.307 94.0846 224.435 94.3854 224.599 94.668C224.763 94.946 224.981 95.1715 225.255 95.3447C225.528 95.5133 225.872 95.5977 226.287 95.5977C226.629 95.5977 226.923 95.527 227.169 95.3857C227.42 95.2399 227.625 95.0417 227.784 94.791C227.948 94.5404 228.069 94.2533 228.146 93.9297C228.224 93.6016 228.263 93.2529 228.263 92.8838ZM232.521 86V96.5H231.25V86H232.521ZM234.217 92.8838V92.7266C234.217 92.1934 234.294 91.6989 234.449 91.2432C234.604 90.7829 234.827 90.3841 235.119 90.0469C235.411 89.7051 235.764 89.4408 236.179 89.2539C236.593 89.0625 237.058 88.9668 237.573 88.9668C238.093 88.9668 238.56 89.0625 238.975 89.2539C239.394 89.4408 239.749 89.7051 240.041 90.0469C240.337 90.3841 240.563 90.7829 240.718 91.2432C240.873 91.6989 240.95 92.1934 240.95 92.7266V92.8838C240.95 93.417 240.873 93.9115 240.718 94.3672C240.563 94.8229 240.337 95.2217 240.041 95.5635C239.749 95.9007 239.396 96.165 238.981 96.3564C238.571 96.5433 238.106 96.6367 237.587 96.6367C237.067 96.6367 236.6 96.5433 236.186 96.3564C235.771 96.165 235.415 95.9007 235.119 95.5635C234.827 95.2217 234.604 94.8229 234.449 94.3672C234.294 93.9115 234.217 93.417 234.217 92.8838ZM235.481 92.7266V92.8838C235.481 93.2529 235.525 93.6016 235.611 93.9297C235.698 94.2533 235.828 94.5404 236.001 94.791C236.179 95.0417 236.4 95.2399 236.664 95.3857C236.928 95.527 237.236 95.5977 237.587 95.5977C237.933 95.5977 238.236 95.527 238.496 95.3857C238.76 95.2399 238.979 95.0417 239.152 94.791C239.326 94.5404 239.455 94.2533 239.542 93.9297C239.633 93.6016 239.679 93.2529 239.679 92.8838V92.7266C239.679 92.362 239.633 92.0179 239.542 91.6943C239.455 91.3662 239.323 91.0768 239.146 90.8262C238.972 90.571 238.754 90.3704 238.489 90.2246C238.229 90.0788 237.924 90.0059 237.573 90.0059C237.227 90.0059 236.922 90.0788 236.657 90.2246C236.397 90.3704 236.179 90.571 236.001 90.8262C235.828 91.0768 235.698 91.3662 235.611 91.6943C235.525 92.0179 235.481 92.362 235.481 92.7266ZM246.897 95.2354V91.4277C246.897 91.1361 246.838 90.8831 246.72 90.6689C246.606 90.4502 246.433 90.2816 246.2 90.1631C245.968 90.0446 245.681 89.9854 245.339 89.9854C245.02 89.9854 244.74 90.04 244.498 90.1494C244.261 90.2588 244.074 90.4023 243.938 90.5801C243.805 90.7578 243.739 90.9492 243.739 91.1543H242.475C242.475 90.89 242.543 90.6279 242.68 90.3682C242.816 90.1084 243.012 89.8737 243.268 89.6641C243.527 89.4499 243.837 89.2812 244.197 89.1582C244.562 89.0306 244.967 88.9668 245.414 88.9668C245.952 88.9668 246.426 89.0579 246.836 89.2402C247.251 89.4225 247.574 89.6982 247.807 90.0674C248.044 90.432 248.162 90.89 248.162 91.4414V94.8867C248.162 95.1328 248.183 95.3949 248.224 95.6729C248.269 95.9508 248.335 96.1901 248.422 96.3906V96.5H247.103C247.039 96.3542 246.989 96.1605 246.952 95.9189C246.916 95.6729 246.897 95.445 246.897 95.2354ZM247.116 92.0156L247.13 92.9043H245.852C245.492 92.9043 245.17 92.9339 244.888 92.9932C244.605 93.0479 244.368 93.1322 244.177 93.2461C243.985 93.36 243.84 93.5036 243.739 93.6768C243.639 93.8454 243.589 94.0436 243.589 94.2715C243.589 94.5039 243.641 94.7158 243.746 94.9072C243.851 95.0986 244.008 95.2513 244.218 95.3652C244.432 95.4746 244.694 95.5293 245.004 95.5293C245.391 95.5293 245.733 95.4473 246.029 95.2832C246.326 95.1191 246.56 94.9186 246.733 94.6816C246.911 94.4447 247.007 94.2145 247.021 93.9912L247.561 94.5996C247.529 94.791 247.442 95.0029 247.301 95.2354C247.16 95.4678 246.97 95.6911 246.733 95.9053C246.501 96.1149 246.223 96.2904 245.899 96.4316C245.58 96.5684 245.22 96.6367 244.819 96.6367C244.318 96.6367 243.878 96.5387 243.5 96.3428C243.126 96.1468 242.835 95.8848 242.625 95.5566C242.42 95.224 242.317 94.8525 242.317 94.4424C242.317 94.0459 242.395 93.6973 242.55 93.3965C242.705 93.0911 242.928 92.8382 243.22 92.6377C243.511 92.4326 243.862 92.2777 244.272 92.1729C244.683 92.068 245.141 92.0156 245.646 92.0156H247.116ZM254.813 95.0645V86H256.085V96.5H254.923L254.813 95.0645ZM249.837 92.8838V92.7402C249.837 92.1751 249.905 91.6624 250.042 91.2021C250.183 90.7373 250.382 90.3385 250.637 90.0059C250.896 89.6732 251.204 89.418 251.56 89.2402C251.92 89.0579 252.321 88.9668 252.763 88.9668C253.228 88.9668 253.633 89.0488 253.979 89.2129C254.33 89.3724 254.627 89.6071 254.868 89.917C255.114 90.2223 255.308 90.5915 255.449 91.0244C255.59 91.4574 255.688 91.9473 255.743 92.4941V93.123C255.693 93.6654 255.595 94.153 255.449 94.5859C255.308 95.0189 255.114 95.388 254.868 95.6934C254.627 95.9987 254.33 96.2334 253.979 96.3975C253.629 96.557 253.218 96.6367 252.749 96.6367C252.316 96.6367 251.92 96.5433 251.56 96.3564C251.204 96.1696 250.896 95.9076 250.637 95.5703C250.382 95.2331 250.183 94.8366 250.042 94.3809C249.905 93.9206 249.837 93.4215 249.837 92.8838ZM251.108 92.7402V92.8838C251.108 93.2529 251.145 93.5993 251.218 93.9229C251.295 94.2464 251.414 94.5312 251.573 94.7773C251.733 95.0234 251.936 95.2171 252.182 95.3584C252.428 95.4951 252.722 95.5635 253.063 95.5635C253.483 95.5635 253.827 95.4746 254.096 95.2969C254.369 95.1191 254.588 94.8844 254.752 94.5928C254.916 94.3011 255.044 93.9844 255.135 93.6426V91.9951C255.08 91.7445 255 91.5029 254.896 91.2705C254.795 91.0335 254.663 90.8239 254.499 90.6416C254.34 90.4548 254.141 90.3066 253.904 90.1973C253.672 90.0879 253.396 90.0332 253.077 90.0332C252.731 90.0332 252.432 90.1061 252.182 90.252C251.936 90.3932 251.733 90.5892 251.573 90.8398C251.414 91.0859 251.295 91.373 251.218 91.7012C251.145 92.0247 251.108 92.3711 251.108 92.7402ZM266.188 95.0645V86H267.46V96.5H266.298L266.188 95.0645ZM261.212 92.8838V92.7402C261.212 92.1751 261.28 91.6624 261.417 91.2021C261.558 90.7373 261.757 90.3385 262.012 90.0059C262.271 89.6732 262.579 89.418 262.935 89.2402C263.295 89.0579 263.696 88.9668 264.138 88.9668C264.603 88.9668 265.008 89.0488 265.354 89.2129C265.705 89.3724 266.002 89.6071 266.243 89.917C266.489 90.2223 266.683 90.5915 266.824 91.0244C266.965 91.4574 267.063 91.9473 267.118 92.4941V93.123C267.068 93.6654 266.97 94.153 266.824 94.5859C266.683 95.0189 266.489 95.388 266.243 95.6934C266.002 95.9987 265.705 96.2334 265.354 96.3975C265.004 96.557 264.593 96.6367 264.124 96.6367C263.691 96.6367 263.295 96.5433 262.935 96.3564C262.579 96.1696 262.271 95.9076 262.012 95.5703C261.757 95.2331 261.558 94.8366 261.417 94.3809C261.28 93.9206 261.212 93.4215 261.212 92.8838ZM262.483 92.7402V92.8838C262.483 93.2529 262.52 93.5993 262.593 93.9229C262.67 94.2464 262.789 94.5312 262.948 94.7773C263.108 95.0234 263.311 95.2171 263.557 95.3584C263.803 95.4951 264.097 95.5635 264.438 95.5635C264.858 95.5635 265.202 95.4746 265.471 95.2969C265.744 95.1191 265.963 94.8844 266.127 94.5928C266.291 94.3011 266.419 93.9844 266.51 93.6426V91.9951C266.455 91.7445 266.375 91.5029 266.271 91.2705C266.17 91.0335 266.038 90.8239 265.874 90.6416C265.715 90.4548 265.516 90.3066 265.279 90.1973C265.047 90.0879 264.771 90.0332 264.452 90.0332C264.106 90.0332 263.807 90.1061 263.557 90.252C263.311 90.3932 263.108 90.5892 262.948 90.8398C262.789 91.0859 262.67 91.373 262.593 91.7012C262.52 92.0247 262.483 92.3711 262.483 92.7402ZM273.79 95.2354V91.4277C273.79 91.1361 273.731 90.8831 273.612 90.6689C273.498 90.4502 273.325 90.2816 273.093 90.1631C272.86 90.0446 272.573 89.9854 272.231 89.9854C271.912 89.9854 271.632 90.04 271.391 90.1494C271.154 90.2588 270.967 90.4023 270.83 90.5801C270.698 90.7578 270.632 90.9492 270.632 91.1543H269.367C269.367 90.89 269.436 90.6279 269.572 90.3682C269.709 90.1084 269.905 89.8737 270.16 89.6641C270.42 89.4499 270.73 89.2812 271.09 89.1582C271.454 89.0306 271.86 88.9668 272.307 88.9668C272.844 88.9668 273.318 89.0579 273.729 89.2402C274.143 89.4225 274.467 89.6982 274.699 90.0674C274.936 90.432 275.055 90.89 275.055 91.4414V94.8867C275.055 95.1328 275.075 95.3949 275.116 95.6729C275.162 95.9508 275.228 96.1901 275.314 96.3906V96.5H273.995C273.931 96.3542 273.881 96.1605 273.845 95.9189C273.808 95.6729 273.79 95.445 273.79 95.2354ZM274.009 92.0156L274.022 92.9043H272.744C272.384 92.9043 272.063 92.9339 271.78 92.9932C271.498 93.0479 271.261 93.1322 271.069 93.2461C270.878 93.36 270.732 93.5036 270.632 93.6768C270.532 93.8454 270.481 94.0436 270.481 94.2715C270.481 94.5039 270.534 94.7158 270.639 94.9072C270.743 95.0986 270.901 95.2513 271.11 95.3652C271.325 95.4746 271.587 95.5293 271.896 95.5293C272.284 95.5293 272.626 95.4473 272.922 95.2832C273.218 95.1191 273.453 94.9186 273.626 94.6816C273.804 94.4447 273.899 94.2145 273.913 93.9912L274.453 94.5996C274.421 94.791 274.335 95.0029 274.193 95.2354C274.052 95.4678 273.863 95.6911 273.626 95.9053C273.394 96.1149 273.116 96.2904 272.792 96.4316C272.473 96.5684 272.113 96.6367 271.712 96.6367C271.211 96.6367 270.771 96.5387 270.393 96.3428C270.019 96.1468 269.727 95.8848 269.518 95.5566C269.312 95.224 269.21 94.8525 269.21 94.4424C269.21 94.0459 269.287 93.6973 269.442 93.3965C269.597 93.0911 269.821 92.8382 270.112 92.6377C270.404 92.4326 270.755 92.2777 271.165 92.1729C271.575 92.068 272.033 92.0156 272.539 92.0156H274.009ZM281.891 89.1035V96.5H280.619V89.1035H281.891ZM280.523 87.1416C280.523 86.9365 280.585 86.7633 280.708 86.6221C280.836 86.4808 281.022 86.4102 281.269 86.4102C281.51 86.4102 281.695 86.4808 281.822 86.6221C281.954 86.7633 282.021 86.9365 282.021 87.1416C282.021 87.3376 281.954 87.5062 281.822 87.6475C281.695 87.7842 281.51 87.8525 281.269 87.8525C281.022 87.8525 280.836 87.7842 280.708 87.6475C280.585 87.5062 280.523 87.3376 280.523 87.1416ZM285.179 90.5732V96.5H283.907V89.1035H285.11L285.179 90.5732ZM284.919 92.5215L284.331 92.501C284.336 91.9951 284.402 91.528 284.529 91.0996C284.657 90.6667 284.846 90.2907 285.097 89.9717C285.347 89.6527 285.66 89.4066 286.033 89.2334C286.407 89.0557 286.84 88.9668 287.332 88.9668C287.678 88.9668 287.997 89.0169 288.289 89.1172C288.581 89.2129 288.834 89.3656 289.048 89.5752C289.262 89.7848 289.428 90.0537 289.547 90.3818C289.665 90.71 289.725 91.1064 289.725 91.5713V96.5H288.46V91.6328C288.46 91.2454 288.394 90.9355 288.262 90.7031C288.134 90.4707 287.952 90.3021 287.715 90.1973C287.478 90.0879 287.2 90.0332 286.881 90.0332C286.507 90.0332 286.195 90.0993 285.944 90.2314C285.694 90.3636 285.493 90.5459 285.343 90.7783C285.192 91.0107 285.083 91.2773 285.015 91.5781C284.951 91.8743 284.919 92.1888 284.919 92.5215ZM289.711 91.8242L288.863 92.084C288.868 91.6784 288.934 91.2887 289.062 90.915C289.194 90.5413 289.383 90.2087 289.629 89.917C289.88 89.6253 290.187 89.3952 290.552 89.2266C290.916 89.0534 291.333 88.9668 291.803 88.9668C292.199 88.9668 292.55 89.0192 292.855 89.124C293.165 89.2288 293.425 89.3906 293.635 89.6094C293.849 89.8236 294.011 90.0993 294.12 90.4365C294.229 90.7738 294.284 91.1748 294.284 91.6396V96.5H293.013V91.626C293.013 91.2113 292.947 90.89 292.814 90.6621C292.687 90.4297 292.505 90.2679 292.268 90.1768C292.035 90.0811 291.757 90.0332 291.434 90.0332C291.156 90.0332 290.91 90.0811 290.695 90.1768C290.481 90.2725 290.301 90.4046 290.155 90.5732C290.009 90.7373 289.898 90.9264 289.82 91.1406C289.747 91.3548 289.711 91.5827 289.711 91.8242ZM300.56 95.2354V91.4277C300.56 91.1361 300.5 90.8831 300.382 90.6689C300.268 90.4502 300.095 90.2816 299.862 90.1631C299.63 90.0446 299.343 89.9854 299.001 89.9854C298.682 89.9854 298.402 90.04 298.16 90.1494C297.923 90.2588 297.736 90.4023 297.6 90.5801C297.467 90.7578 297.401 90.9492 297.401 91.1543H296.137C296.137 90.89 296.205 90.6279 296.342 90.3682C296.479 90.1084 296.674 89.8737 296.93 89.6641C297.189 89.4499 297.499 89.2812 297.859 89.1582C298.224 89.0306 298.63 88.9668 299.076 88.9668C299.614 88.9668 300.088 89.0579 300.498 89.2402C300.913 89.4225 301.236 89.6982 301.469 90.0674C301.706 90.432 301.824 90.89 301.824 91.4414V94.8867C301.824 95.1328 301.845 95.3949 301.886 95.6729C301.931 95.9508 301.997 96.1901 302.084 96.3906V96.5H300.765C300.701 96.3542 300.651 96.1605 300.614 95.9189C300.578 95.6729 300.56 95.445 300.56 95.2354ZM300.778 92.0156L300.792 92.9043H299.514C299.154 92.9043 298.832 92.9339 298.55 92.9932C298.267 93.0479 298.03 93.1322 297.839 93.2461C297.647 93.36 297.502 93.5036 297.401 93.6768C297.301 93.8454 297.251 94.0436 297.251 94.2715C297.251 94.5039 297.303 94.7158 297.408 94.9072C297.513 95.0986 297.67 95.2513 297.88 95.3652C298.094 95.4746 298.356 95.5293 298.666 95.5293C299.053 95.5293 299.395 95.4473 299.691 95.2832C299.988 95.1191 300.222 94.9186 300.396 94.6816C300.573 94.4447 300.669 94.2145 300.683 93.9912L301.223 94.5996C301.191 94.791 301.104 95.0029 300.963 95.2354C300.822 95.4678 300.632 95.6911 300.396 95.9053C300.163 96.1149 299.885 96.2904 299.562 96.4316C299.243 96.5684 298.882 96.6367 298.481 96.6367C297.98 96.6367 297.54 96.5387 297.162 96.3428C296.788 96.1468 296.497 95.8848 296.287 95.5566C296.082 95.224 295.979 94.8525 295.979 94.4424C295.979 94.0459 296.057 93.6973 296.212 93.3965C296.367 93.0911 296.59 92.8382 296.882 92.6377C297.174 92.4326 297.524 92.2777 297.935 92.1729C298.345 92.068 298.803 92.0156 299.309 92.0156H300.778ZM308.605 89.1035H309.754V96.3428C309.754 96.9945 309.622 97.5505 309.357 98.0107C309.093 98.471 308.724 98.8197 308.25 99.0566C307.781 99.2982 307.238 99.4189 306.623 99.4189C306.368 99.4189 306.067 99.3779 305.721 99.2959C305.379 99.2184 305.042 99.084 304.709 98.8926C304.381 98.7057 304.105 98.4528 303.882 98.1338L304.545 97.3818C304.855 97.7555 305.178 98.0153 305.516 98.1611C305.857 98.307 306.195 98.3799 306.527 98.3799C306.928 98.3799 307.275 98.3047 307.566 98.1543C307.858 98.0039 308.084 97.7806 308.243 97.4844C308.407 97.1927 308.489 96.8327 308.489 96.4043V90.7305L308.605 89.1035ZM303.513 92.8838V92.7402C303.513 92.1751 303.579 91.6624 303.711 91.2021C303.848 90.7373 304.041 90.3385 304.292 90.0059C304.547 89.6732 304.855 89.418 305.215 89.2402C305.575 89.0579 305.98 88.9668 306.432 88.9668C306.896 88.9668 307.302 89.0488 307.648 89.2129C307.999 89.3724 308.296 89.6071 308.537 89.917C308.783 90.2223 308.977 90.5915 309.118 91.0244C309.259 91.4574 309.357 91.9473 309.412 92.4941V93.123C309.362 93.6654 309.264 94.153 309.118 94.5859C308.977 95.0189 308.783 95.388 308.537 95.6934C308.296 95.9987 307.999 96.2334 307.648 96.3975C307.298 96.557 306.887 96.6367 306.418 96.6367C305.976 96.6367 305.575 96.5433 305.215 96.3564C304.859 96.1696 304.554 95.9076 304.299 95.5703C304.044 95.2331 303.848 94.8366 303.711 94.3809C303.579 93.9206 303.513 93.4215 303.513 92.8838ZM304.777 92.7402V92.8838C304.777 93.2529 304.814 93.5993 304.887 93.9229C304.964 94.2464 305.08 94.5312 305.235 94.7773C305.395 95.0234 305.598 95.2171 305.844 95.3584C306.09 95.4951 306.384 95.5635 306.726 95.5635C307.145 95.5635 307.491 95.4746 307.765 95.2969C308.038 95.1191 308.255 94.8844 308.414 94.5928C308.578 94.3011 308.706 93.9844 308.797 93.6426V91.9951C308.747 91.7445 308.669 91.5029 308.564 91.2705C308.464 91.0335 308.332 90.8239 308.168 90.6416C308.008 90.4548 307.81 90.3066 307.573 90.1973C307.336 90.0879 307.058 90.0332 306.739 90.0332C306.393 90.0332 306.094 90.1061 305.844 90.252C305.598 90.3932 305.395 90.5892 305.235 90.8398C305.08 91.0859 304.964 91.373 304.887 91.7012C304.814 92.0247 304.777 92.3711 304.777 92.7402ZM314.744 96.6367C314.229 96.6367 313.762 96.5501 313.343 96.377C312.928 96.1992 312.57 95.9508 312.27 95.6318C311.973 95.3128 311.745 94.9346 311.586 94.4971C311.426 94.0596 311.347 93.5811 311.347 93.0615V92.7744C311.347 92.1729 311.436 91.6374 311.613 91.168C311.791 90.694 312.033 90.293 312.338 89.9648C312.643 89.6367 312.99 89.3883 313.377 89.2197C313.764 89.0511 314.165 88.9668 314.58 88.9668C315.109 88.9668 315.564 89.0579 315.947 89.2402C316.335 89.4225 316.651 89.6777 316.897 90.0059C317.144 90.3294 317.326 90.7122 317.444 91.1543C317.563 91.5918 317.622 92.0703 317.622 92.5898V93.1572H312.099V92.125H316.357V92.0293C316.339 91.7012 316.271 91.3822 316.152 91.0723C316.038 90.7624 315.856 90.5072 315.605 90.3066C315.355 90.1061 315.013 90.0059 314.58 90.0059C314.293 90.0059 314.029 90.0674 313.787 90.1904C313.546 90.3089 313.338 90.4867 313.165 90.7236C312.992 90.9606 312.857 91.25 312.762 91.5918C312.666 91.9336 312.618 92.3278 312.618 92.7744V93.0615C312.618 93.4124 312.666 93.7428 312.762 94.0527C312.862 94.3581 313.006 94.627 313.192 94.8594C313.384 95.0918 313.614 95.2741 313.883 95.4062C314.156 95.5384 314.466 95.6045 314.812 95.6045C315.259 95.6045 315.637 95.5133 315.947 95.3311C316.257 95.1488 316.528 94.9049 316.761 94.5996L317.526 95.208C317.367 95.4495 317.164 95.6797 316.918 95.8984C316.672 96.1172 316.369 96.2949 316.009 96.4316C315.653 96.5684 315.232 96.6367 314.744 96.6367ZM320.356 90.5732V96.5H319.085V89.1035H320.288L320.356 90.5732ZM320.097 92.5215L319.509 92.501C319.513 91.9951 319.579 91.528 319.707 91.0996C319.835 90.6667 320.024 90.2907 320.274 89.9717C320.525 89.6527 320.837 89.4066 321.211 89.2334C321.585 89.0557 322.018 88.9668 322.51 88.9668C322.856 88.9668 323.175 89.0169 323.467 89.1172C323.758 89.2129 324.011 89.3656 324.226 89.5752C324.44 89.7848 324.606 90.0537 324.725 90.3818C324.843 90.71 324.902 91.1064 324.902 91.5713V96.5H323.638V91.6328C323.638 91.2454 323.572 90.9355 323.439 90.7031C323.312 90.4707 323.13 90.3021 322.893 90.1973C322.656 90.0879 322.378 90.0332 322.059 90.0332C321.685 90.0332 321.373 90.0993 321.122 90.2314C320.871 90.3636 320.671 90.5459 320.521 90.7783C320.37 91.0107 320.261 91.2773 320.192 91.5781C320.129 91.8743 320.097 92.1888 320.097 92.5215ZM324.889 91.8242L324.041 92.084C324.046 91.6784 324.112 91.2887 324.239 90.915C324.371 90.5413 324.561 90.2087 324.807 89.917C325.057 89.6253 325.365 89.3952 325.729 89.2266C326.094 89.0534 326.511 88.9668 326.98 88.9668C327.377 88.9668 327.728 89.0192 328.033 89.124C328.343 89.2288 328.603 89.3906 328.812 89.6094C329.027 89.8236 329.188 90.0993 329.298 90.4365C329.407 90.7738 329.462 91.1748 329.462 91.6396V96.5H328.19V91.626C328.19 91.2113 328.124 90.89 327.992 90.6621C327.865 90.4297 327.682 90.2679 327.445 90.1768C327.213 90.0811 326.935 90.0332 326.611 90.0332C326.333 90.0332 326.087 90.0811 325.873 90.1768C325.659 90.2725 325.479 90.4046 325.333 90.5732C325.187 90.7373 325.076 90.9264 324.998 91.1406C324.925 91.3548 324.889 91.5827 324.889 91.8242Z" fill="#607D8B"/>
<path d="M366 83H352C350.895 83 350 83.8954 350 85V99C350 100.105 350.895 101 352 101H366C367.105 101 368 100.105 368 99V85C368 83.8954 367.105 83 366 83Z" stroke="#607D8B" stroke-width="2" stroke-linejoin="round"/>
<path d="M355.5 90C356.328 90 357 89.3284 357 88.5C357 87.6716 356.328 87 355.5 87C354.672 87 354 87.6716 354 88.5C354 89.3284 354.672 90 355.5 90Z" stroke="#607D8B" stroke-width="2" stroke-linejoin="round"/>
<path d="M368 95L363 90L352 101" stroke="#607D8B" stroke-width="2" stroke-linejoin="round"/>
<path d="M373.5 76.7085V84.2918" stroke="#607D8B" stroke-width="2" stroke-linecap="round" stroke-linejoin="round"/>
<path d="M369.708 80.5H377.291" stroke="#607D8B" stroke-width="2" stroke-linecap="round" stroke-linejoin="round"/>
<rect x="0.5" y="0.5" width="547" height="183" rx="7.5" stroke="#607D8B" stroke-dasharray="24 24"/>
</svg>
